<svg xmlns="http://www.w3.org/2000/svg" width="25" height="25" fill="none"><path stroke="#1C4835" stroke-linecap="round" stroke-linejoin="round" stroke-width="2" d="M14.828 9.098c-.78-.203-1.866-.5-2.735-.5-4.289 0-7.765 2.667-7.765 5.958 0 1.891 1.148 3.576 2.938 4.668l-.485 1.6a.6.6 0 0 0 .574.774H9.12a.6.6 0 0 0 .36-.12l1.395-1.047h2.437l1.395 1.047a.6.6 0 0 0 .36.12h1.764a.6.6 0 0 0 .574-.774l-.485-1.6c1.067-.65 1.905-1.512 2.409-2.501M14.828 9.098l4.5-1.5-.084 3.628 2.084.872v3.5l-1.926 1"/><path fill="#1C4835" stroke="#1C4835" stroke-linecap="round" stroke-linejoin="round" stroke-width="1.5" d="M15.828 13.598a.5.5 0 1 1 0-1 .5.5 0 0 1 0 1Z"/><path stroke="#1C4835" stroke-linecap="round" stroke-linejoin="round" stroke-width="2" d="M2.328 10.598s0 2.4 2 3"/><path stroke="#1C4835" stroke-linejoin="round" stroke-width="2" d="M13.129 8.35c.129-.371.199-.771.199-1.188 0-1.968-1.567-3.564-3.5-3.564s-3.5 1.596-3.5 3.564c0 .942.358 1.798.944 2.436"/></svg>