<svg xmlns="http://www.w3.org/2000/svg" width="25" height="24" fill="none"><g stroke="#1C4835" stroke-linecap="round" stroke-linejoin="round" stroke-width="2" clip-path="url(#a)"><path d="m16.908 3.843 3.602 3.602a2.877 2.877 0 0 1 0 4.069l-2.643 2.643a2.88 2.88 0 0 1-4.069 0l-.301-.301-6.558 6.558a2 2 0 0 1-1.239.578L5.525 21H4.353a1 1 0 0 1-.993-.883L3.353 20v-1.172a2 2 0 0 1 .467-1.284l.119-.13.414-.414h2v-2h2v-2l2.144-2.144-.301-.301a2.877 2.877 0 0 1 0-4.069l2.643-2.643a2.876 2.876 0 0 1 4.069 0ZM15.353 9h.01"/></g><defs><clipPath id="a"><path fill="#fff" d="M.353 0h24v24h-24z"/></clipPath></defs></svg>