<svg xmlns="http://www.w3.org/2000/svg" width="25" height="25" fill="none"><g stroke="#1C4835" stroke-linecap="round" stroke-linejoin="round" stroke-width="2" clip-path="url(#a)"><path d="M9.328 5.598h-2a2 2 0 0 0-2 2v12a2 2 0 0 0 2 2h10a2 2 0 0 0 2-2v-12a2 2 0 0 0-2-2h-2"/><path d="M13.328 3.598h-2a2 2 0 1 0 0 4h2a2 2 0 1 0 0-4ZM14.328 11.598h-2.5a1.5 1.5 0 1 0 0 3h1a1.5 1.5 0 1 1 0 3h-2.5M12.328 10.598v1m0 6v1-1Z"/></g><defs><clipPath id="a"><path fill="#fff" d="M.328.598h24v24h-24z"/></clipPath></defs></svg>