<svg xmlns="http://www.w3.org/2000/svg" width="82" height="82" fill="none"><g fill="#1C4835" clip-path="url(#a)"><path d="M46.715 37.616a9.575 9.575 0 0 0 2.593 1.064c.914.228 1.864.343 2.828.343 1.324 0 2.578-.22 3.73-.656a8.427 8.427 0 0 0 3.046-1.972c.852-.865 1.532-1.955 2.02-3.235.482-1.272.728-2.757.728-4.415 0-1.659-.244-3.143-.728-4.415-.486-1.275-1.144-2.361-1.955-3.224a7.896 7.896 0 0 0-2.886-1.962 9.295 9.295 0 0 0-3.412-.64c-1.805 0-3.364.432-4.634 1.281a8.279 8.279 0 0 0-1.448 1.216l.03-7.43c0-.862-.295-1.555-.88-2.066-.557-.488-1.253-.734-2.066-.734h-.633v22.304l.033.097c.338 1.015.836 1.904 1.48 2.638.63.72 1.357 1.33 2.157 1.806h-.003Zm5.798-17.09c.774 0 1.487.14 2.125.417.616.267 1.162.712 1.623 1.319.475.628.858 1.48 1.136 2.527.286 1.075.43 2.406.43 3.956 0 1.55-.144 2.912-.428 3.972-.278 1.035-.667 1.886-1.153 2.527-.475.625-1.031 1.06-1.698 1.333a6.034 6.034 0 0 1-2.284.423c-.828 0-1.601-.137-2.291-.408a4.83 4.83 0 0 1-1.755-1.167c-.488-.511-.878-1.165-1.16-1.946-.285-.793-.43-1.743-.43-2.82v-3.865c0-.86.145-1.678.428-2.433a6.425 6.425 0 0 1 1.196-2.007 5.398 5.398 0 0 1 1.84-1.342c.719-.324 1.536-.486 2.427-.486h-.006ZM49.223 42.19c-1.016.338-1.905.836-2.639 1.48a8.969 8.969 0 0 0-1.806 2.156 9.568 9.568 0 0 0-1.065 2.592 11.7 11.7 0 0 0-.343 2.827c0 1.324.22 2.578.656 3.729a8.424 8.424 0 0 0 1.973 3.045c.865.853 1.955 1.532 3.236 2.02 1.272.482 2.758.728 4.416.728 1.66 0 3.145-.244 4.417-.728 1.275-.486 2.361-1.144 3.225-1.955a7.894 7.894 0 0 0 1.962-2.885c.425-1.08.64-2.229.64-3.41 0-1.805-.432-3.364-1.281-4.633a8.264 8.264 0 0 0-1.216-1.447l7.432.029c.862 0 1.556-.295 2.067-.878.488-.559.734-1.254.734-2.067v-.632H49.32l-.098.032v-.003Zm12.23 11.557c-.268.616-.711 1.162-1.318 1.622-.629.475-1.48.858-2.528 1.136-1.075.286-2.407.43-3.957.43-1.55 0-2.913-.144-3.974-.428-1.035-.278-1.886-.666-2.528-1.152-.625-.475-1.06-1.032-1.333-1.698a6.028 6.028 0 0 1-.423-2.283c0-.828.137-1.601.408-2.291a4.83 4.83 0 0 1 1.168-1.754c.51-.49 1.165-.878 1.946-1.16.793-.285 1.743-.43 2.82-.43h3.867c.86 0 1.679.145 2.434.428a6.426 6.426 0 0 1 2.008 1.196 5.399 5.399 0 0 1 1.342 1.84c.324.718.486 1.535.486 2.425 0 .773-.14 1.487-.417 2.124v-.005ZM37.694 45.571a8.97 8.97 0 0 0-2.157-1.806 9.572 9.572 0 0 0-2.593-1.064 11.711 11.711 0 0 0-2.828-.343c-1.325 0-2.579.22-3.73.656a8.426 8.426 0 0 0-3.046 1.972c-.853.865-1.533 1.955-2.02 3.235-.483 1.272-.729 2.757-.729 4.415s.244 3.143.729 4.415c.486 1.275 1.143 2.361 1.955 3.224a7.896 7.896 0 0 0 2.885 1.962c1.08.425 2.23.64 3.412.64 1.805 0 3.365-.432 4.635-1.281a8.27 8.27 0 0 0 1.447-1.216l-.029 7.43c0 .862.295 1.555.878 2.066.559.488 1.254.734 2.068.734h.632V48.306l-.033-.097c-.337-1.016-.836-1.904-1.48-2.638h.004Zm-7.956 15.282c-.773 0-1.487-.14-2.125-.417-.616-.267-1.162-.712-1.622-1.319-.476-.628-.859-1.479-1.137-2.527-.286-1.074-.43-2.406-.43-3.956 0-1.55.144-2.912.428-3.972.278-1.035.667-1.886 1.153-2.527.475-.625 1.032-1.06 1.698-1.333a6.036 6.036 0 0 1 2.285-.423c.827 0 1.6.137 2.29.408a4.83 4.83 0 0 1 1.755 1.167c.488.511.878 1.165 1.16 1.946.286.793.43 1.743.43 2.82v3.865c0 .86-.144 1.678-.428 2.434A6.424 6.424 0 0 1 34 59.025a5.401 5.401 0 0 1-1.84 1.343c-.719.323-1.535.485-2.426.485h.005ZM33.245 38.35c1.016-.338 1.905-.837 2.639-1.48a8.968 8.968 0 0 0 1.807-2.157 9.564 9.564 0 0 0 1.064-2.592 11.7 11.7 0 0 0 .343-2.827c0-1.324-.22-2.578-.656-3.728a8.42 8.42 0 0 0-1.973-3.046c-.865-.853-1.955-1.532-3.236-2.02-1.272-.482-2.758-.727-4.416-.727-1.66 0-3.145.243-4.417.727-1.275.486-2.361 1.144-3.225 1.955a7.893 7.893 0 0 0-1.962 2.885 9.285 9.285 0 0 0-.64 3.41c0 1.805.432 3.364 1.281 4.634.37.552.777 1.036 1.216 1.447l-7.432-.03c-.862 0-1.556.295-2.067.879-.488.558-.734 1.253-.734 2.066v.632h22.31l.099-.032v.003ZM21.012 26.791c.27-.616.712-1.161 1.32-1.622.628-.475 1.48-.858 2.527-1.136 1.076-.286 2.407-.43 3.958-.43 1.55 0 2.913.144 3.973.428 1.035.278 1.887.666 2.528 1.152.625.476 1.06 1.032 1.334 1.698.28.689.422 1.456.422 2.284 0 .827-.137 1.6-.408 2.29A4.829 4.829 0 0 1 35.5 33.21c-.512.49-1.166.878-1.946 1.16-.794.285-1.744.43-2.821.43h-3.867c-.86 0-1.678-.145-2.434-.428a6.427 6.427 0 0 1-2.007-1.196 5.396 5.396 0 0 1-1.343-1.839c-.323-.719-.486-1.535-.486-2.426 0-.773.14-1.487.417-2.124v.005ZM28.701 4.393c.078 3.716.168 7.928 3.269 10.9 1.136 1.089 2.53 2.086 4.385 3.137a1.697 1.697 0 0 0 1.637.03c.517-.272.859-.78.911-1.361.165-1.82.4-6.377-.976-9.437-1.31-2.913-4.694-5.547-6.595-6.857A1.706 1.706 0 0 0 29.547.71c-.57.307-.913.9-.898 1.548l.034 1.432.016.706.002-.003Zm6.919 4.304c.893 1.986.932 4.999.851 6.861-1.117-.699-2.006-1.378-2.75-2.09-2.346-2.247-2.418-5.744-2.49-9.128l-.011-.482c1.489 1.16 3.58 3.017 4.4 4.84ZM81.388 29a1.714 1.714 0 0 0-1.54-.915l-1.432.02-.706.01c-3.717.04-7.931.084-10.936 3.152-1.1 1.123-2.113 2.507-3.186 4.351a1.705 1.705 0 0 0-.045 1.637c.266.52.77.865 1.351.925.707.072 1.827.157 3.114.157 2.022 0 4.456-.213 6.335-1.035 2.93-1.28 5.598-4.636 6.928-6.521a1.702 1.702 0 0 0 .116-1.783l.001.002Zm-8.057 5.986c-1.995.872-5.009.88-6.87.779.712-1.11 1.399-1.991 2.12-2.728 2.271-2.32 5.771-2.357 9.156-2.394.164 0 .327-.003.482-.005-1.174 1.476-3.055 3.548-4.888 4.348ZM54.367 77.78c-.078-3.716-.168-7.929-3.269-10.9-1.136-1.09-2.53-2.087-4.385-3.14a1.705 1.705 0 0 0-1.637-.027 1.703 1.703 0 0 0-.911 1.36c-.164 1.82-.4 6.379.976 9.437 1.31 2.914 4.694 5.547 6.595 6.857a1.702 1.702 0 0 0 1.785.096c.57-.307.913-.902.898-1.548l-.034-1.433-.016-.706-.002.004Zm-6.919-4.305c-.892-1.985-.932-4.998-.85-6.86 1.116.698 2.005 1.378 2.75 2.091 2.345 2.247 2.417 5.744 2.49 9.128l.01.482c-1.489-1.16-3.58-3.017-4.4-4.84v-.001ZM17.106 42.468c-1.818-.184-6.375-.466-9.45.876-2.93 1.28-5.599 4.635-6.929 6.521a1.702 1.702 0 0 0-.115 1.783c.298.566.876.914 1.514.914h.025l1.433-.02.705-.009c3.717-.04 7.933-.085 10.938-3.152 1.1-1.123 2.112-2.507 3.185-4.352.293-.505.311-1.116.045-1.636a1.705 1.705 0 0 0-1.351-.925Zm-3.686 5.143c-2.272 2.32-5.772 2.357-9.156 2.393-.163 0-.326.004-.483.006 1.175-1.476 3.056-3.548 4.888-4.348 1.498-.656 3.57-.822 5.3-.822.573 0 1.108.018 1.572.043-.712 1.11-1.399 1.99-2.12 2.728h-.001Z"/></g><defs><clipPath id="a"><path fill="#fff" d="M.413.5h81.174v81.174H.413z"/></clipPath></defs></svg>
