<svg width="25" height="24" viewBox="0 0 25 24" fill="none" xmlns="http://www.w3.org/2000/svg"><g clip-path="url(#clip0_1183_28659)"><path d="M3.164 12C3.164 13.1819 3.39679 14.3522 3.84909 15.4442C4.30138 16.5361 4.96431 17.5282 5.80004 18.364C6.63577 19.1997 7.62792 19.8626 8.71985 20.3149C9.81178 20.7672 10.9821 21 12.164 21C13.3459 21 14.5162 20.7672 15.6082 20.3149C16.7001 19.8626 17.6922 19.1997 18.528 18.364C19.3637 17.5282 20.0266 16.5361 20.4789 15.4442C20.9312 14.3522 21.164 13.1819 21.164 12C21.164 10.8181 20.9312 9.64778 20.4789 8.55585C20.0266 7.46392 19.3637 6.47177 18.528 5.63604C17.6922 4.80031 16.7001 4.13738 15.6082 3.68508C14.5162 3.23279 13.3459 3 12.164 3C10.9821 3 9.81178 3.23279 8.71985 3.68508C7.62792 4.13738 6.63577 4.80031 5.80004 5.63604C4.96431 6.47177 4.30138 7.46392 3.84909 8.55585C3.39679 9.64778 3.164 10.8181 3.164 12Z" stroke="#1C4835" stroke-width="2" stroke-linecap="round" stroke-linejoin="round"/><path d="M9.164 10C9.164 10.7956 9.48007 11.5587 10.0427 12.1213C10.6053 12.6839 11.3684 13 12.164 13C12.9597 13 13.7227 12.6839 14.2853 12.1213C14.8479 11.5587 15.164 10.7956 15.164 10C15.164 9.20435 14.8479 8.44129 14.2853 7.87868C13.7227 7.31607 12.9597 7 12.164 7C11.3684 7 10.6053 7.31607 10.0427 7.87868C9.48007 8.44129 9.164 9.20435 9.164 10Z" stroke="#1C4835" stroke-width="2" stroke-linecap="round" stroke-linejoin="round"/><path d="M6.33203 18.849C6.57954 18.0252 7.086 17.3032 7.77628 16.79C8.46656 16.2768 9.30388 15.9997 10.164 16H14.164C15.0253 15.9997 15.8636 16.2774 16.5544 16.7918C17.2452 17.3062 17.7515 18.0298 17.998 18.855" stroke="#1C4835" stroke-width="2" stroke-linecap="round" stroke-linejoin="round"/></g><defs><clipPath id="clip0_1183_28659"><rect width="24" height="24" fill="white" transform="translate(0.164001)"/></clipPath></defs></svg>
