<svg width="25" height="24" viewBox="0 0 25 24" fill="none" xmlns="http://www.w3.org/2000/svg"><g clip-path="url(#clip0_841_18822)"><path d="M17.4427 20H6.44275C5.6471 20 4.88404 19.6839 4.32143 19.1213C3.75882 18.5587 3.44275 17.7956 3.44275 17C3.44275 16.2044 3.75882 15.4413 4.32143 14.8787C4.88404 14.3161 5.6471 14 6.44275 14H17.4427C16.6471 14 15.884 14.3161 15.3214 14.8787C14.7588 15.4413 14.4427 16.2044 14.4427 17C14.4427 17.7956 14.7588 18.5587 15.3214 19.1213C15.884 19.6839 16.6471 20 17.4427 20ZM17.4427 20H18.4427C19.2384 20 20.0015 19.6839 20.5641 19.1213C21.1267 18.5587 21.4427 17.7956 21.4427 17V6C21.4427 5.46957 21.232 4.96086 20.857 4.58579C20.4819 4.21071 19.9732 4 19.4427 4H9.44275C8.91232 4 8.40361 4.21071 8.02854 4.58579C7.65346 4.96086 7.44275 5.46957 7.44275 6V14" stroke="#1C4835" stroke-width="2" stroke-linecap="round" stroke-linejoin="round"/></g><defs><clipPath id="clip0_841_18822"><rect width="24" height="24" fill="white" transform="translate(0.442749)"/></clipPath></defs></svg>
