<svg xmlns="http://www.w3.org/2000/svg" width="24" height="24" fill="none"><path fill="#1C4835" d="M20 19.966V8.915l-8-4.881-8 4.88v11.052h4V17.17c0-1.079.421-2.114 1.172-2.876A3.966 3.966 0 0 1 12 13.102c1.06 0 2.078.429 2.828 1.192A4.102 4.102 0 0 1 16 17.17v2.796h4ZM14 22v-4.83c0-.54-.21-1.057-.586-1.438A1.983 1.983 0 0 0 12 15.136c-.53 0-1.04.214-1.414.596A2.051 2.051 0 0 0 10 17.17V22H4c-.53 0-1.04-.214-1.414-.596A2.051 2.051 0 0 1 2 19.966V8.915c0-.351.09-.697.26-1.002.17-.306.415-.561.711-.742l8-4.881a1.975 1.975 0 0 1 2.058 0l8 4.88c.296.182.541.437.711.743.17.305.26.65.26 1.002v11.051c0 .54-.21 1.057-.586 1.438A1.983 1.983 0 0 1 20 22h-6Z"/></svg>