<svg xmlns="http://www.w3.org/2000/svg" width="185" height="34" fill="none"><path fill="#1C4835" d="M45.39 4.122c3.372 0 6.649 1.005 6.649 5.057 0 2.323-1.432 3.768-3.5 4.553 2.736.377 4.582 2.167 4.582 5.119 0 4.051-2.737 6.155-7.764 6.155h-6.363V4.122h6.395Zm4.04 5.308c0-2.795-1.972-3.33-4.581-3.33h-3.34v6.847h3.085c3.437 0 4.837-1.445 4.837-3.517Zm.986 9.485c0-2.544-1.813-4.02-4.931-4.02h-3.978v8.102h3.85c3.85 0 5.06-1.759 5.06-4.082ZM56.843 20.39V3.18h2.514v17.084c0 2.418.445 3.235 2.004 3.235.732 0 1.496-.251 2.1-.534l.573 1.727c-.668.44-1.941.754-3.246.754-3.722 0-3.945-2.418-3.945-5.056ZM65.21 17.092c0-6.5 3.914-8.133 7.064-8.133 2.196 0 6.523.69 6.523 7.788 0 6.124-3.055 8.699-7.064 8.699-4.008 0-6.522-2.7-6.522-8.354Zm11.073.19c0-3.769-1.113-6.376-4.2-6.376-3.086 0-4.358 2.481-4.358 5.873 0 3.109.604 6.783 4.231 6.783 2.99 0 4.327-2.858 4.327-6.28ZM81.85 17.092c0-6.5 3.914-8.133 7.064-8.133 2.195 0 6.522.69 6.522 7.788 0 6.124-3.054 8.699-7.063 8.699s-6.522-2.7-6.522-8.354Zm11.073.19c0-3.769-1.114-6.376-4.2-6.376-3.086 0-4.359 2.481-4.359 5.873 0 3.109.605 6.783 4.232 6.783 2.99 0 4.327-2.858 4.327-6.28ZM99.095 9.398h2.1l.318 2.23c1.114-1.727 2.896-2.67 4.836-2.67 2.132 0 3.691.849 4.55 2.89 1.018-1.916 2.927-2.89 4.932-2.89 3.277 0 5.091 1.948 5.091 5.528v10.52h-2.482v-9.86c0-2.23-.477-4.24-3.245-4.24-2.196 0-3.818 1.821-3.818 3.737v10.363h-2.482v-9.83c0-2.01-.287-4.27-3.246-4.27-2.259 0-3.818 1.915-3.818 3.894v10.206H99.35V11.754l-.255-2.356ZM124.135 23.94l.859-1.79c.923.596 2.577 1.412 4.423 1.412 1.654 0 3.15-.848 3.15-2.669 0-1.822-1.464-2.387-3.277-2.858-2.291-.66-4.805-1.35-4.805-4.46 0-3.108 2.546-4.616 5.314-4.616 2.259 0 4.168.974 5.281 2.104l-1.336 1.508c-1.05-.974-2.418-1.727-4.009-1.727-1.4 0-2.895.66-2.895 2.512 0 1.727 1.495 2.23 3.34 2.795 2.291.69 4.805 1.382 4.805 4.522 0 3.14-2.291 4.774-5.536 4.774-2.577 0-4.646-.942-5.314-1.508ZM137.625 17.658c0-5.276 2.609-8.7 7.446-8.7 1.272 0 2.259.252 3.277.566V3.18h2.45v19l.254 2.826h-2.227l-.223-1.884-.095-.031c-1.273 1.727-3.023 2.386-4.677 2.386-4.645 0-6.205-3.643-6.205-7.82Zm10.723 2.544v-8.605c-.732-.377-1.909-.753-3.373-.753-3.468 0-4.9 2.826-4.9 6.532 0 3.234.891 6.186 4.137 6.186 2.577 0 4.136-1.79 4.136-3.36ZM154.806 17.878c0-5.56 2.673-8.92 7.954-8.92.986 0 3.214.252 5.25 1.006v12.31l.254 2.732h-2.227l-.222-1.853-.096-.031c-.859 1.256-2.323 2.355-4.709 2.355-4.709 0-6.204-3.454-6.204-7.6Zm10.754 2.166V11.44c-.573-.283-1.845-.566-3.182-.566-3.818 0-5.122 3.078-5.122 7.098 0 2.7.827 5.59 4.168 5.59 2.704 0 4.136-1.759 4.136-3.518ZM173.578 29.404c0-2.544 1.941-4.366 3.5-5.37-2.546-.283-4.455-1.508-4.455-5.15V9.398h2.482v8.95c0 2.293.223 4.083 3.595 4.083 2.037 0 3.85-1.508 3.85-3.674V9.399H185v14.948c0 1.382-.159 3.235-.509 4.366-.732 2.92-2.736 4.647-6.109 4.647-3.372 0-4.804-1.538-4.804-3.956Zm8.972-3.706V22.84c-3.818 1.539-6.681 3.266-6.681 6.218 0 1.602 1.018 2.418 2.736 2.418 2.895 0 3.945-2.386 3.945-5.778ZM17.346 14.442c.298.176.625.308.972.394.342.084.698.127 1.06.127a3.98 3.98 0 0 0 1.396-.243c.437-.163.82-.408 1.142-.73.32-.32.574-.722.756-1.196.181-.47.273-1.02.273-1.633s-.091-1.163-.273-1.633a3.587 3.587 0 0 0-.732-1.193 2.96 2.96 0 0 0-1.081-.725 3.521 3.521 0 0 0-1.278-.237c-.677 0-1.26.16-1.737.474a3.092 3.092 0 0 0-.542.45l.011-2.749c0-.318-.11-.575-.329-.764a1.15 1.15 0 0 0-.774-.271h-.237v8.25l.012.036c.126.375.313.704.554.975.236.267.509.492.809.668h-.002Zm2.172-6.321c.29 0 .558.052.797.154.23.099.435.263.607.488.179.232.322.547.426.935.107.397.162.89.162 1.463 0 .573-.055 1.077-.161 1.47-.104.382-.25.697-.432.934a1.497 1.497 0 0 1-.636.493 2.285 2.285 0 0 1-.856.157c-.31 0-.6-.051-.858-.152a1.811 1.811 0 0 1-.658-.431 2.023 2.023 0 0 1-.434-.72 3.063 3.063 0 0 1-.161-1.043v-1.43c0-.318.054-.62.16-.9.106-.279.257-.529.448-.742.188-.21.42-.377.69-.496.269-.12.575-.18.909-.18h-.003ZM18.286 16.134c-.38.125-.714.31-.988.547-.27.234-.499.502-.677.798a3.513 3.513 0 0 0-.4.96c-.084.337-.128.689-.128 1.045 0 .49.083.953.246 1.379.165.43.414.81.74 1.127.323.315.732.566 1.212.747.476.178 1.033.269 1.654.269.622 0 1.178-.09 1.655-.27.477-.18.884-.422 1.208-.723.327-.303.574-.662.735-1.067.16-.4.24-.824.24-1.261 0-.668-.162-1.244-.48-1.714a3.069 3.069 0 0 0-.456-.535l2.785.01c.322 0 .582-.108.774-.324.183-.207.275-.464.275-.765v-.233h-8.358l-.037.012v-.002Zm4.582 4.275c-.1.228-.266.43-.494.6-.235.176-.554.318-.947.42-.403.106-.902.16-1.482.16-.581 0-1.092-.054-1.49-.159-.387-.103-.706-.246-.946-.426a1.482 1.482 0 0 1-.5-.628 2.206 2.206 0 0 1-.158-.845c0-.306.051-.592.153-.847.1-.251.246-.47.437-.649.192-.18.437-.325.73-.429a3.175 3.175 0 0 1 1.056-.159h1.449c.322 0 .629.054.911.159.283.104.537.253.753.442.212.186.381.415.503.68.12.266.182.568.182.897 0 .286-.053.55-.157.786v-.002ZM13.967 17.385a3.35 3.35 0 0 0-.808-.668 3.61 3.61 0 0 0-.972-.394 4.44 4.44 0 0 0-1.06-.127 3.98 3.98 0 0 0-1.396.243c-.437.163-.82.408-1.142.73-.32.32-.574.723-.757 1.196-.18.47-.272 1.02-.272 1.633 0 .614.091 1.163.272 1.633.182.472.429.874.733 1.193.307.323.67.567 1.08.726.406.157.836.236 1.279.236.676 0 1.26-.16 1.736-.474.208-.137.389-.287.543-.45l-.011 2.749c0 .319.11.575.329.764.209.18.47.272.774.272h.237v-8.25l-.012-.036a2.808 2.808 0 0 0-.554-.976Zm-2.98 5.653c-.29 0-.558-.052-.797-.154a1.53 1.53 0 0 1-.608-.488c-.178-.233-.321-.547-.425-.935-.107-.398-.162-.89-.162-1.463 0-.574.055-1.078.16-1.47.105-.383.25-.697.433-.934.178-.232.386-.393.636-.494.258-.103.546-.156.856-.156.31 0 .6.05.858.151.255.098.475.243.657.432.183.189.33.43.435.72.107.293.161.644.161 1.042v1.43c0 .318-.054.621-.16.9a2.37 2.37 0 0 1-.448.743c-.189.21-.42.377-.69.496-.269.12-.575.18-.909.18h.002ZM12.3 14.714c.38-.125.714-.31.989-.548.27-.233.498-.501.677-.797.178-.294.312-.617.398-.96.085-.337.129-.689.129-1.045 0-.49-.083-.953-.246-1.379a3.112 3.112 0 0 0-.74-1.127 3.472 3.472 0 0 0-1.212-.747c-.476-.178-1.033-.269-1.654-.269s-1.178.09-1.655.27c-.477.18-.884.422-1.208.722a2.919 2.919 0 0 0-.735 1.067c-.16.4-.24.825-.24 1.262 0 .668.162 1.244.48 1.714.139.204.291.383.456.535l-2.784-.01c-.323 0-.583.108-.775.324a1.116 1.116 0 0 0-.275.764v.234h8.359l.036-.012v.002Zm-4.583-4.275c.101-.228.267-.43.494-.6.236-.176.555-.318.947-.42.403-.106.902-.16 1.483-.16.58 0 1.091.054 1.489.159.387.103.706.246.947.426.234.176.397.382.5.628.104.255.158.539.158.845 0 .306-.052.592-.153.847-.1.251-.247.469-.438.649a2.049 2.049 0 0 1-.729.429 3.176 3.176 0 0 1-1.056.159h-1.45c-.321 0-.628-.054-.911-.159a2.413 2.413 0 0 1-.752-.442 1.997 1.997 0 0 1-.503-.68 2.15 2.15 0 0 1-.182-.897c0-.287.053-.55.156-.786v.002ZM10.598 2.153c.029 1.375.063 2.933 1.224 4.032.426.403.948.772 1.643 1.16a.642.642 0 0 0 .614.011.63.63 0 0 0 .34-.503c.062-.673.15-2.358-.365-3.49-.49-1.078-1.758-2.052-2.47-2.537a.646.646 0 0 0-.67-.035.63.63 0 0 0-.336.573l.013.53.006.26Zm2.592 1.593c.334.734.349 1.848.319 2.537a6.314 6.314 0 0 1-1.03-.773c-.88-.831-.906-2.125-.934-3.376 0-.06-.002-.119-.004-.178.558.428 1.341 1.115 1.649 1.79ZM30.336 11.255a.643.643 0 0 0-.577-.338l-.536.007-.265.004c-1.393.014-2.971.031-4.097 1.166-.412.415-.791.927-1.194 1.61a.623.623 0 0 0-.016.605c.1.192.288.32.506.342.265.027.684.058 1.166.058.758 0 1.67-.079 2.374-.383 1.097-.473 2.097-1.714 2.595-2.412a.623.623 0 0 0 .043-.66l.001.001Zm-3.018 2.214c-.748.323-1.877.326-2.574.289a6.26 6.26 0 0 1 .794-1.01c.85-.857 2.162-.871 3.43-.885l.18-.002c-.44.546-1.144 1.313-1.83 1.608ZM20.213 29.299c-.03-1.375-.063-2.933-1.225-4.032-.425-.403-.947-.772-1.643-1.162a.646.646 0 0 0-.613-.01.63.63 0 0 0-.341.504c-.062.672-.15 2.359.366 3.49.49 1.078 1.758 2.052 2.47 2.537a.643.643 0 0 0 1.006-.538l-.013-.53-.006-.26h-.001Zm-2.592-1.593c-.334-.734-.35-1.848-.319-2.537.419.258.752.51 1.03.773.88.832.906 2.125.933 3.377l.004.178c-.557-.429-1.34-1.116-1.648-1.79ZM6.254 16.237c-.681-.068-2.389-.172-3.54.324-1.098.473-2.098 1.715-2.596 2.412a.623.623 0 0 0-.044.66.64.64 0 0 0 .568.338h.01l.536-.007.264-.004c1.392-.015 2.972-.031 4.098-1.166.412-.415.79-.927 1.193-1.61a.624.624 0 0 0 .017-.605.639.639 0 0 0-.506-.342ZM4.873 18.14c-.851.858-2.163.872-3.43.886l-.181.002c.44-.546 1.144-1.313 1.83-1.608.562-.243 1.339-.305 1.986-.305.215 0 .415.007.59.017-.267.41-.525.736-.795 1.008Z"/></svg>