<svg width="25" height="24" viewBox="0 0 25 24" fill="none" xmlns="http://www.w3.org/2000/svg"><g clip-path="url(#clip0_1186_36599)"><path d="M15.172 6.99996L8.67201 13.5C8.27418 13.8978 8.05068 14.4374 8.05068 15C8.05068 15.5626 8.27418 16.1021 8.67201 16.5C9.06983 16.8978 9.6094 17.1213 10.172 17.1213C10.7346 17.1213 11.2742 16.8978 11.672 16.5L18.172 9.99996C18.9677 9.20432 19.4146 8.12518 19.4146 6.99996C19.4146 5.87475 18.9677 4.79561 18.172 3.99996C17.3764 3.20432 16.2972 2.75732 15.172 2.75732C14.0468 2.75732 12.9677 3.20432 12.172 3.99996L5.67201 10.5C4.47853 11.6934 3.80804 13.3121 3.80804 15C3.80804 16.6878 4.47853 18.3065 5.67201 19.5C6.86548 20.6934 8.48418 21.3639 10.172 21.3639C11.8598 21.3639 13.4785 20.6934 14.672 19.5L21.172 13" stroke="#1C4835" stroke-width="2" stroke-linecap="round" stroke-linejoin="round"/></g><defs><clipPath id="clip0_1186_36599"><rect width="24" height="24" fill="white" transform="translate(0.171997)"/></clipPath></defs></svg>
