<svg xmlns="http://www.w3.org/2000/svg" width="25" height="24" fill="none"><path fill="#1C4835" d="M4.672 10v10h12V10h-12Zm2-2V4a2 2 0 0 1 2-2h12a2 2 0 0 1 2 2v10a2 2 0 0 1-2 2h-2v4a2 2 0 0 1-2 2h-12a2 2 0 0 1-2-2V10a2 2 0 0 1 2-2h2Zm2 0h8a2 2 0 0 1 2 2v4h2V4h-12v4Zm0 9a3 3 0 1 1 0-6 3 3 0 0 1 0 6Zm0-2a1 1 0 1 0 0-2 1 1 0 0 0 0 2Zm1-7a3 3 0 1 1 6 0h-2a1 1 0 1 0-2 0h-2Zm1.864 13.518-1.728-1.007 2.725-4.673a3 3 0 0 1 4.8-.52l1.088 1.184-1.473 1.354-1.087-1.184a1 1 0 0 0-1.6.174l-2.725 4.672Zm6.512-12.97a2.994 2.994 0 0 1 3.285.77l1.088 1.184-1.473 1.354-1.087-1.184a1 1 0 0 0-1.189-.215V10c0-.571-.24-1.088-.624-1.452Z"/></svg>