<svg width="25" height="24" viewBox="0 0 25 24" fill="none" xmlns="http://www.w3.org/2000/svg"><g clip-path="url(#clip0_1120_17970)"><path d="M12.9711 10C12.9711 10.5304 13.1818 11.0391 13.5569 11.4142C13.9319 11.7893 14.4406 12 14.9711 12C15.5015 12 16.0102 11.7893 16.3853 11.4142C16.7604 11.0391 16.9711 10.5304 16.9711 10C16.9711 9.46957 16.7604 8.96086 16.3853 8.58579C16.0102 8.21071 15.5015 8 14.9711 8C14.4406 8 13.9319 8.21071 13.5569 8.58579C13.1818 8.96086 12.9711 9.46957 12.9711 10Z" stroke="#1C4835" stroke-width="2" stroke-linecap="round" stroke-linejoin="round"/><path d="M13.4711 11.5L9.47107 15.5L10.9711 17" stroke="#1C4835" stroke-width="2" stroke-linecap="round" stroke-linejoin="round"/><path d="M12.9711 15L11.4711 13.5" stroke="#1C4835" stroke-width="2" stroke-linecap="round" stroke-linejoin="round"/><path d="M3.97107 5C3.97107 4.46957 4.18178 3.96086 4.55686 3.58579C4.93193 3.21071 5.44064 3 5.97107 3H19.9711C20.5015 3 21.0102 3.21071 21.3853 3.58579C21.7604 3.96086 21.9711 4.46957 21.9711 5V19C21.9711 19.5304 21.7604 20.0391 21.3853 20.4142C21.0102 20.7893 20.5015 21 19.9711 21H5.97107C5.44064 21 4.93193 20.7893 4.55686 20.4142C4.18178 20.0391 3.97107 19.5304 3.97107 19V5Z" stroke="#1C4835" stroke-width="2" stroke-linecap="round" stroke-linejoin="round"/></g><defs><clipPath id="clip0_1120_17970"><rect width="24" height="24" fill="white" transform="translate(0.971069)"/></clipPath></defs></svg>
