<svg class="animate-spin" width="103" height="102" viewBox="0 0 103 102" fill="none" xmlns="http://www.w3.org/2000/svg">
  <mask id="mask0_1821_15431" style="mask-type:alpha" maskUnits="userSpaceOnUse" x="51" y="5" width="45" height="91">
    <path d="M51.0249 5.89673C62.8602 5.89673 74.2107 10.5983 82.5795 18.9671C90.9483 27.3359 95.6499 38.6864 95.6499 50.5217C95.6499 62.357 90.9484 73.7076 82.5795 82.0764C74.2107 90.4452 62.8602 95.1467 51.0249 95.1467L51.0249 86.668C60.6115 86.668 69.8054 82.8597 76.5842 76.081C83.3629 69.3022 87.1712 60.1083 87.1712 50.5217C87.1712 40.9351 83.3629 31.7412 76.5842 24.9625C69.8054 18.1837 60.6115 14.3755 51.0249 14.3755V5.89673Z" fill="#006B5F"/>
  </mask>
  <g mask="url(#mask0_1821_15431)">
    <path d="M51.015 5.90063C56.8752 5.90063 62.6781 7.05489 68.0923 9.29751C73.5064 11.5401 78.4258 14.8272 82.5697 18.971C86.7135 23.1148 90.0005 28.0342 92.2431 33.4484C94.4857 38.8626 95.64 44.6654 95.64 50.5257C95.64 56.3859 94.4857 62.1887 92.2431 67.6029C90.0005 73.0171 86.7134 77.9365 82.5696 82.0803C78.4258 86.2241 73.5064 89.5111 68.0922 91.7538C62.678 93.9964 56.8752 95.1506 51.0149 95.1506L51.0149 86.6719C55.7617 86.6719 60.4621 85.7369 64.8475 83.9204C69.233 82.1039 73.2177 79.4414 76.5742 76.0849C79.9307 72.7284 82.5932 68.7437 84.4098 64.3582C86.2263 59.9728 87.1612 55.2724 87.1612 50.5256C87.1612 45.7789 86.2263 41.0785 84.4098 36.6931C82.5933 32.3076 79.9308 28.3229 76.5743 24.9664C73.2178 21.6099 69.233 18.9474 64.8476 17.1308C60.4621 15.3143 55.7618 14.3794 51.015 14.3794L51.015 5.90063Z" fill="#208459"/>
  </g>
  <mask id="mask1_1821_15431" style="mask-type:alpha" maskUnits="userSpaceOnUse" x="6" y="50" width="90" height="46">
    <path d="M95.647 50.5217C95.647 62.357 90.9454 73.7076 82.5766 82.0764C74.2078 90.4452 62.8573 95.1467 51.022 95.1467C39.1867 95.1467 27.8361 90.4452 19.4673 82.0764C11.0985 73.7076 6.39697 62.357 6.39697 50.5217L14.8757 50.5217C14.8757 60.1083 18.684 69.3023 25.4627 76.081C32.2414 82.8597 41.4354 86.668 51.022 86.668C60.6086 86.668 69.8025 82.8597 76.5812 76.081C83.36 69.3022 87.1682 60.1083 87.1682 50.5217L95.647 50.5217Z" fill="#006B5F"/>
  </mask>
  <g mask="url(#mask1_1821_15431)">
    <path d="M95.6429 50.5115C95.6429 56.3717 94.4887 62.1746 92.2461 67.5887C90.0035 73.0029 86.7164 77.9223 82.5726 82.0661C78.4288 86.2099 73.5093 89.497 68.0952 91.7396C62.681 93.9822 56.8782 95.1365 51.0179 95.1364C45.1577 95.1364 39.3548 93.9822 33.9407 91.7396C28.5265 89.4969 23.6071 86.2099 19.4633 82.0661C15.3195 77.9222 12.0324 73.0028 9.78982 67.5886C7.54722 62.1745 6.39297 56.3716 6.39297 50.5114L14.8717 50.5114C14.8717 55.2582 15.8067 59.9585 17.6232 64.344C19.4397 68.7295 22.1022 72.7142 25.4587 76.0707C28.8152 79.4272 32.7999 82.0897 37.1854 83.9062C41.5708 85.7227 46.2711 86.6577 51.0179 86.6577C55.7647 86.6577 60.465 85.7228 64.8505 83.9062C69.236 82.0897 73.2207 79.4272 76.5772 76.0707C79.9337 72.7142 82.5962 68.7295 84.4127 64.344C86.2292 59.9586 87.1642 55.2583 87.1642 50.5115L95.6429 50.5115Z" fill="#208459"/>
  </g>
</svg>
