<svg xmlns="http://www.w3.org/2000/svg" width="24" height="25" fill="none"><path fill="#1C4835" d="m16.126 14.607 4.725 1.537c.24.079.24.42 0 .498l-4.725 1.538a.262.262 0 0 0-.168.167l-1.537 4.723c-.079.241-.42.241-.499 0l-1.537-4.723a.262.262 0 0 0-.168-.168l-4.725-1.537a.262.262 0 0 1 0-.498l4.725-1.537a.263.263 0 0 0 .168-.167l1.537-4.724c.079-.24.42-.24.498 0l1.538 4.724c.026.08.089.141.168.167ZM8.41 8.322l2.917.948c.149.05.149.26 0 .307l-2.917.949a.16.16 0 0 0-.103.103l-.949 2.916c-.049.149-.259.149-.307 0l-.949-2.916A.16.16 0 0 0 6 10.526L3.08 9.577c-.148-.048-.148-.259 0-.307l2.917-.948a.16.16 0 0 0 .104-.103l.948-2.916c.05-.149.26-.149.307 0l.95 2.916a.16.16 0 0 0 .103.103h.001ZM13.594 3.728l1.844.6a.102.102 0 0 1 0 .193l-1.844.6a.101.101 0 0 0-.065.065l-.6 1.843a.102.102 0 0 1-.194 0l-.6-1.843a.101.101 0 0 0-.065-.065l-1.844-.6a.102.102 0 0 1 0-.194l1.844-.6a.101.101 0 0 0 .065-.065l.6-1.843a.102.102 0 0 1 .194 0l.6 1.843c.01.032.035.056.065.066Z"/></svg>