<svg width="31" height="31" viewBox="0 0 31 31" fill="none" xmlns="http://www.w3.org/2000/svg">
<path d="M17.3462 14.6924C17.6441 14.8681 17.971 15.0004 18.3176 15.086C18.6602 15.1701 19.0162 15.2129 19.3771 15.2129C19.8733 15.2129 20.3431 15.1314 20.7743 14.9704C21.2109 14.8073 21.5948 14.5621 21.9156 14.2407C22.2352 13.9207 22.4897 13.5177 22.6725 13.044C22.8532 12.5736 22.9453 12.0244 22.9453 11.411C22.9453 10.7976 22.8539 10.2484 22.6725 9.77796C22.4904 9.30623 22.244 8.90466 21.94 8.58527C21.6327 8.26254 21.2691 8.01866 20.8589 7.85963C20.4541 7.70261 20.0236 7.6231 19.5808 7.6231C18.9045 7.6231 18.3203 7.78279 17.8444 8.09683C17.6373 8.23381 17.4559 8.38415 17.3022 8.54652L17.313 5.79831C17.313 5.47959 17.2027 5.22301 16.984 5.03391C16.7748 4.85351 16.5142 4.76263 16.2096 4.76263H15.9727V13.0126L15.9848 13.0487C16.1114 13.4242 16.2983 13.7529 16.5393 14.0242C16.7755 14.2908 17.0477 14.516 17.3476 14.6924H17.3462ZM19.5185 8.37079C19.8083 8.37079 20.0757 8.4229 20.3146 8.52513C20.5455 8.62402 20.7499 8.7884 20.9225 9.0129C21.1006 9.24543 21.2441 9.56014 21.3484 9.94768C21.4553 10.3452 21.5095 10.8377 21.5095 11.411C21.5095 11.9843 21.4553 12.4881 21.349 12.8803C21.2448 13.2632 21.0992 13.5779 20.9171 13.8151C20.7391 14.0463 20.5306 14.2073 20.2808 14.3082C20.0229 14.4118 19.7352 14.4646 19.4251 14.4646C19.1151 14.4646 18.8253 14.4138 18.5667 14.3135C18.3122 14.2153 18.0915 14.0703 17.9094 13.8819C17.7266 13.6928 17.5804 13.4509 17.4748 13.1623C17.3679 12.8689 17.3137 12.5175 17.3137 12.1193V10.6894C17.3137 10.3713 17.3679 10.0686 17.4741 9.78932C17.5804 9.51003 17.7314 9.26013 17.9223 9.04698C18.1105 8.83717 18.3427 8.67013 18.6114 8.55052C18.8809 8.43092 19.1868 8.37079 19.5206 8.37079H19.5185Z" fill="#1C4835"/>
<path d="M18.2858 16.3842C17.9053 16.5092 17.5723 16.6936 17.2974 16.9315C17.0273 17.1647 16.7992 17.4333 16.6205 17.7293C16.4424 18.0233 16.3084 18.346 16.2218 18.6881C16.1365 19.0262 16.0931 19.3777 16.0931 19.7338C16.0931 20.2236 16.1757 20.6873 16.3389 21.1129C16.5041 21.5439 16.7525 21.9227 17.0781 22.2395C17.4024 22.5548 17.8106 22.8061 18.2905 22.9865C18.7671 23.1649 19.3236 23.2557 19.945 23.2557C20.5665 23.2557 21.1229 23.1655 21.5995 22.9865C22.0774 22.8067 22.4843 22.5635 22.8079 22.2635C23.1348 21.9602 23.3819 21.6013 23.543 21.1964C23.7021 20.7969 23.7827 20.3719 23.7827 19.9349C23.7827 19.2674 23.6209 18.6908 23.3027 18.221C23.1639 18.0166 23.0116 17.8375 22.8471 17.6858L25.6314 17.6965C25.9543 17.6965 26.2143 17.5876 26.4059 17.3718C26.5886 17.1653 26.6807 16.9081 26.6807 16.6074V16.3735H18.3224L18.2858 16.3856V16.3842ZM22.8681 20.6592C22.7672 20.8871 22.6014 21.0889 22.3739 21.2592C22.1383 21.435 21.8195 21.5766 21.4269 21.6795C21.0241 21.7851 20.5252 21.8385 19.9443 21.8385C19.3635 21.8385 18.8531 21.7851 18.4557 21.6802C18.0678 21.5773 17.749 21.4336 17.5087 21.2539C17.2744 21.0782 17.1113 20.8724 17.0091 20.6258C16.9041 20.3712 16.8507 20.0873 16.8507 19.7812C16.8507 19.4752 16.9021 19.1892 17.0036 18.934C17.1032 18.6828 17.2501 18.4649 17.441 18.2852C17.6325 18.1041 17.8776 17.9605 18.17 17.8562C18.4672 17.7506 18.8233 17.6972 19.2268 17.6972H20.6754C20.9977 17.6972 21.3043 17.7506 21.5873 17.8555C21.8703 17.9605 22.1235 18.1095 22.3394 18.2979C22.552 18.4836 22.7212 18.7128 22.8424 18.9781C22.9636 19.244 23.0245 19.546 23.0245 19.8754C23.0245 20.1614 22.9717 20.4254 22.8681 20.6612V20.6592Z" fill="#1C4835"/>
<path d="M13.9668 17.635C13.7306 17.3684 13.4584 17.1433 13.1585 16.9669C12.8607 16.7911 12.5337 16.6588 12.1871 16.5733C11.8446 16.4891 11.4885 16.4464 11.1277 16.4464C10.6315 16.4464 10.1617 16.5279 9.73044 16.6889C9.29381 16.8519 8.90997 17.0972 8.5891 17.4185C8.26957 17.7386 8.01504 18.1415 7.83226 18.6152C7.65151 19.0856 7.55945 19.6349 7.55945 20.2483C7.55945 20.8617 7.65084 21.4109 7.83226 21.8813C8.01436 22.353 8.26077 22.7546 8.56473 23.074C8.87206 23.3967 9.23559 23.6406 9.64582 23.7996C10.0506 23.9566 10.4812 24.0362 10.9239 24.0362C11.6002 24.0362 12.1844 23.8765 12.6603 23.5624C12.8674 23.4254 13.0489 23.2751 13.2025 23.1127L13.1917 25.861C13.1917 26.1797 13.3021 26.4363 13.5207 26.6253C13.7299 26.8058 13.9905 26.8966 14.2951 26.8966H14.5321V18.6467L14.5199 18.6106C14.3933 18.2351 14.2065 17.9063 13.9655 17.635H13.9668ZM10.9862 23.2878C10.6965 23.2878 10.4291 23.2357 10.1901 23.1335C9.95925 23.0346 9.75481 22.8702 9.58219 22.6457C9.40415 22.4132 9.26063 22.0985 9.15638 21.7109C9.04942 21.3133 8.99527 20.8209 8.99527 20.2476C8.99527 19.6743 9.04943 19.1705 9.15571 18.7783C9.25996 18.3954 9.4055 18.0807 9.5876 17.8435C9.76564 17.6123 9.97415 17.4513 10.2239 17.3504C10.4819 17.2468 10.7696 17.194 11.0796 17.194C11.3897 17.194 11.6794 17.2448 11.938 17.345C12.1925 17.4433 12.4132 17.5883 12.5953 17.7767C12.7781 17.9658 12.9243 18.2077 13.0299 18.4963C13.1369 18.7896 13.191 19.1411 13.191 19.5393V20.9692C13.191 21.2873 13.1369 21.59 13.0306 21.8693C12.9243 22.1486 12.7734 22.3985 12.5825 22.6116C12.3943 22.8214 12.1621 22.9885 11.8933 23.1081C11.6239 23.2277 11.3179 23.2878 10.9842 23.2878H10.9862Z" fill="#1C4835"/>
<path d="M12.3002 14.9637C12.6806 14.8387 13.0137 14.6543 13.2885 14.4164C13.5586 14.1833 13.7868 13.9146 13.9655 13.6186C14.1435 13.3246 14.2776 13.0019 14.3642 12.6598C14.4495 12.3217 14.4928 11.9703 14.4928 11.6141C14.4928 11.1243 14.4103 10.6606 14.2471 10.235C14.0819 9.80403 13.8335 9.42517 13.5079 9.10846C13.1836 8.79308 12.7754 8.54185 12.2954 8.36144C11.8189 8.18303 11.2624 8.09216 10.641 8.09216C10.0195 8.09216 9.46307 8.18237 8.98649 8.36144C8.50856 8.54118 8.10171 8.78439 7.77813 9.0844C7.45116 9.38776 7.20407 9.74657 7.04296 10.1515C6.88387 10.5511 6.80332 10.976 6.80332 11.413C6.80332 12.0805 6.96511 12.6571 7.28328 13.1269C7.42205 13.3313 7.57437 13.5104 7.73887 13.6621L4.95455 13.6514C4.63165 13.6514 4.3717 13.7603 4.18012 13.9761C3.99734 14.1826 3.90527 14.4398 3.90527 14.7405V14.9744H12.2636L12.3002 14.9623V14.9637ZM7.7172 10.6887C7.81807 10.4608 7.98392 10.2591 8.21138 10.0887C8.44696 9.91294 8.76581 9.77129 9.15844 9.66839C9.56123 9.56282 10.0601 9.50936 10.641 9.50936C11.2218 9.50936 11.7322 9.56282 12.1296 9.66772C12.5175 9.77062 12.8363 9.91428 13.0767 10.094C13.3109 10.2697 13.474 10.4755 13.5762 10.7221C13.6812 10.9767 13.7347 11.2607 13.7347 11.5667C13.7347 11.8727 13.6832 12.1587 13.5817 12.4139C13.4821 12.6652 13.3352 12.883 13.1443 13.0627C12.9528 13.2438 12.7077 13.3875 12.4153 13.4917C12.1181 13.5973 11.762 13.6507 11.3585 13.6507H9.90986C9.58763 13.6507 9.28097 13.5973 8.998 13.4924C8.71503 13.3875 8.46185 13.2385 8.2459 13.05C8.03334 12.8643 7.8641 12.6351 7.74293 12.3698C7.62175 12.1039 7.56083 11.8019 7.56083 11.4725C7.56083 11.1865 7.61363 10.9226 7.7172 10.6867V10.6887Z" fill="#1C4835"/>
<path d="M10.5977 2.40329C10.6268 3.77773 10.6606 5.33592 11.8223 6.43507C12.2481 6.83798 12.77 7.20681 13.4653 7.59569C13.5634 7.65115 13.6724 7.67854 13.7814 7.67854C13.8829 7.67854 13.9852 7.65449 14.0786 7.60638C14.2722 7.50615 14.4001 7.3184 14.4198 7.10324C14.4814 6.43039 14.5694 4.74458 14.0542 3.61269C13.5634 2.53492 12.2955 1.56072 11.5833 1.0763C11.3836 0.940656 11.1277 0.927292 10.9145 1.04088C10.7013 1.15447 10.5726 1.3743 10.578 1.61351L10.5909 2.14337C10.5929 2.22957 10.595 2.31643 10.597 2.40463L10.5977 2.40329ZM13.1897 3.99556C13.5242 4.72988 13.539 5.8444 13.5086 6.53329C13.0902 6.27471 12.7572 6.02347 12.4783 5.76021C11.5996 4.929 11.5725 3.63541 11.5454 2.38392C11.5441 2.32445 11.5427 2.26498 11.5414 2.20551C12.0992 2.63448 12.8824 3.32137 13.1897 3.99556Z" fill="#1C4835"/>
<path d="M30.3363 11.5052C30.2232 11.2934 30.0019 11.1651 29.7595 11.1671L29.2227 11.1744C29.1354 11.1758 29.0467 11.1764 28.958 11.1778C27.5655 11.1925 25.9868 11.2092 24.8611 12.3437C24.4488 12.7593 24.0697 13.2712 23.6676 13.9534C23.5579 14.1405 23.5512 14.3663 23.6507 14.5587C23.7502 14.7512 23.9391 14.8788 24.157 14.9008C24.4217 14.9276 24.8414 14.959 25.3234 14.959C26.0809 14.959 26.9928 14.8801 27.6968 14.5761C28.7942 14.103 29.794 12.8616 30.2923 12.164C30.4317 11.9689 30.4487 11.7156 30.3356 11.5045L30.3363 11.5052ZM27.3177 13.7195C26.5704 14.0422 25.4412 14.0449 24.744 14.0075C25.0107 13.5972 25.2679 13.2712 25.538 12.9985C26.389 12.1406 27.7002 12.1266 28.9682 12.1132C29.0298 12.1132 29.0907 12.1119 29.1489 12.1112C28.7089 12.6571 28.0042 13.4235 27.3177 13.7195Z" fill="#1C4835"/>
<path d="M20.2131 29.5486C20.184 28.1742 20.1502 26.616 18.9885 25.5168C18.5627 25.1139 18.0408 24.7451 17.3456 24.3555C17.1553 24.2493 16.9258 24.2453 16.7322 24.3455C16.5386 24.4457 16.4107 24.6335 16.3911 24.8486C16.3295 25.5215 16.2414 27.208 16.7566 28.3392C17.2474 29.417 18.5153 30.3912 19.2275 30.8756C19.3372 30.9504 19.4637 30.9879 19.591 30.9879C19.6953 30.9879 19.8002 30.9625 19.8963 30.911C20.1096 30.7974 20.2382 30.5776 20.2328 30.3384L20.2199 29.8085C20.2179 29.7223 20.2158 29.6355 20.2138 29.5473L20.2131 29.5486ZM17.6211 27.9563C17.2867 27.222 17.2718 26.1075 17.3022 25.4186C17.7206 25.6772 18.0537 25.9284 18.3326 26.1924C19.2112 27.0236 19.2383 28.3172 19.2654 29.5686C19.2668 29.6281 19.2681 29.6876 19.2695 29.747C18.7117 29.3181 17.9284 28.6312 17.6211 27.957V27.9563Z" fill="#1C4835"/>
<path d="M6.25361 16.4871C5.5726 16.419 3.86532 16.3148 2.71314 16.8112C1.6158 17.2843 0.615936 18.5257 0.117698 19.2233C-0.0217549 19.4184 -0.0386788 19.6717 0.0743726 19.8828C0.18607 20.092 0.402696 20.2209 0.641661 20.2209C0.644368 20.2209 0.647753 20.2209 0.651138 20.2209L1.18796 20.2136C1.27529 20.2122 1.36329 20.2116 1.45198 20.2102C2.84447 20.1955 4.42381 20.1788 5.54958 19.0443C5.96185 18.6286 6.34094 18.1168 6.74305 17.4346C6.85272 17.2475 6.85949 17.0217 6.75998 16.8292C6.66046 16.6368 6.47159 16.5092 6.25361 16.4871ZM4.87263 18.3894C4.02169 19.2474 2.71043 19.2614 1.4425 19.2748C1.38157 19.2748 1.32065 19.2761 1.26175 19.2768C1.70177 18.7309 2.40648 17.9645 3.09291 17.6685C3.65411 17.4259 4.43057 17.3645 5.07842 17.3645C5.29302 17.3645 5.49339 17.3711 5.66737 17.3805C5.40065 17.7908 5.14341 18.1168 4.8733 18.3894H4.87263Z" fill="#1C4835"/>
</svg>
